<?xml version="1.0" standalone="no"?>
<!DOCTYPE svg PUBLIC "-//W3C//DTD SVG 20010904//EN"
 "http://www.w3.org/TR/2001/REC-SVG-20010904/DTD/svg10.dtd">
<svg version="1.0" xmlns="http://www.w3.org/2000/svg"
 width="732.000000pt" height="732.000000pt" viewBox="0 0 732.000000 732.000000"
 preserveAspectRatio="xMidYMid meet">

<g transform="translate(0.000000,732.000000) scale(0.100000,-0.100000)"
fill="#000000" stroke="none">
<path d="M2668 2514 c-16 -8 -28 -20 -28 -27 0 -21 78 -104 114 -121 59 -28
123 -21 256 29 163 61 193 59 257 -13 31 -35 31 -35 57 -19 14 10 26 21 26 26
0 5 -27 33 -59 63 -86 80 -105 81 -292 17 -120 -41 -156 -50 -186 -44 -34 6
-83 46 -108 87 -9 15 -13 16 -37 2z"/>
<path d="M1925 2334 c-38 -25 -164 -93 -280 -150 -115 -57 -231 -119 -258
-139 -63 -47 -105 -107 -113 -161 -8 -53 8 -77 63 -95 122 -40 613 -284 673
-334 47 -39 99 -46 150 -20 64 33 92 112 52 148 -10 10 -124 65 -253 123 -271
122 -389 183 -389 200 0 25 105 105 189 145 307 146 381 192 381 240 0 48 -58
89 -125 89 -11 0 -51 -21 -90 -46z"/>
<path d="M5012 2355 c-85 -71 3 -140 281 -219 48 -14 110 -37 138 -53 51 -27
109 -86 109 -110 0 -7 -31 -33 -68 -57 -37 -24 -110 -76 -162 -117 -52 -41
-127 -93 -166 -116 -121 -72 -164 -143 -114 -188 52 -47 107 -17 405 215 94
73 203 155 242 182 131 88 134 122 24 214 -88 74 -197 132 -391 210 -181 72
-248 81 -298 39z"/>
<path d="M2939 2135 c-56 -18 -124 -82 -133 -126 -12 -61 -6 -149 13 -200 61
-158 176 -217 301 -152 86 44 120 116 120 252 0 108 -37 184 -108 220 -37 19
-142 23 -193 6z m140 -180 c21 -21 19 -80 -4 -105 -24 -26 -78 -27 -105 0 -20
20 -27 74 -12 96 23 35 90 40 121 9z"/>
<path d="M4110 2128 c-24 -13 -58 -40 -74 -61 -28 -35 -31 -47 -34 -120 -5
-108 21 -181 88 -248 53 -53 89 -65 171 -57 63 6 115 46 149 114 22 43 25 62
25 154 0 93 -3 110 -25 150 -35 63 -91 90 -185 90 -54 0 -81 -5 -115 -22z
m129 -168 c10 -5 24 -22 30 -39 10 -24 10 -34 -3 -59 -26 -50 -83 -58 -121
-17 -57 63 19 156 94 115z"/>
<path d="M3451 1417 c-2 -24 50 -109 94 -153 112 -112 265 -72 349 93 28 55
17 60 -25 10 -56 -65 -104 -88 -188 -89 -97 -1 -148 28 -213 122 -9 14 -17 22
-17 17z"/>
<path d="M3220 1129 c-73 -8 -101 -19 -292 -114 -155 -77 -224 -93 -319 -76
-68 12 -181 65 -237 111 -20 17 -40 30 -44 30 -12 0 -9 -182 3 -242 38 -178
187 -316 390 -363 94 -21 260 -21 365 0 94 20 220 73 286 121 156 115 227 289
168 408 -47 95 -169 142 -320 125z"/>
<path d="M3870 1121 c-104 -32 -170 -116 -170 -217 0 -97 74 -218 186 -302
209 -157 570 -190 800 -74 172 87 257 233 257 439 0 57 -2 106 -5 109 -3 3
-28 -11 -55 -32 -26 -20 -75 -50 -108 -65 -150 -71 -245 -62 -453 41 -208 104
-228 110 -335 109 -51 0 -103 -4 -117 -8z"/>
</g>
</svg>
