<?xml version="1.0" encoding="utf-8"?>
<!-- Generator: Adobe Illustrator 16.0.0, SVG Export Plug-In . SVG Version: 6.00 Build 0)  -->
<!DOCTYPE svg PUBLIC "-//W3C//DTD SVG 1.1 Tiny//EN" "http://www.w3.org/Graphics/SVG/1.1/DTD/svg11-tiny.dtd">
<svg xmlns="http://www.w3.org/2000/svg" xmlns:xlink="http://www.w3.org/1999/xlink" version="1.1" baseProfile="tiny" id="Layer_1" x="0px" y="0px" width="512px" height="512px" viewBox="0 0 24 24" xml:space="preserve">
<g>
	<path d="M6.02,13.853c2.96,0,5.369-2.408,5.369-5.369c0-0.203-0.038-0.396-0.06-0.593h1.442c-0.021,0.197-0.06,0.39-0.06,0.593   c0,2.96,2.409,5.369,5.369,5.369s5.369-2.408,5.369-5.369s-2.409-5.369-5.369-5.369c-2.476,0-4.544,1.693-5.163,3.976h-1.736   C10.563,4.809,8.495,3.116,6.02,3.116c-2.96,0-5.369,2.408-5.369,5.369S3.06,13.853,6.02,13.853z M18.081,3.916   c2.52,0,4.568,2.05,4.568,4.569s-2.049,4.569-4.568,4.569s-4.568-2.05-4.568-4.569S15.562,3.916,18.081,3.916z M6.02,3.916   c2.52,0,4.568,2.05,4.568,4.569s-2.049,4.569-4.568,4.569s-4.568-2.05-4.568-4.569S3.5,3.916,6.02,3.916z" fill="#FFFFFF"/>
	<path d="M23.455,15.947c-0.016-0.152-0.117-0.282-0.261-0.334c-0.145-0.051-0.306-0.017-0.416,0.089   c-0.836,0.814-1.572,1.193-2.317,1.193c-0.95,0-2.014-0.585-3.672-2.02c-0.843-0.729-1.689-1.099-2.517-1.099   c-0.93,0-1.765,0.505-2.272,1.321c-0.509-0.816-1.344-1.321-2.273-1.321c-0.828,0-1.676,0.371-2.519,1.103   c-1.655,1.438-2.719,2.025-3.671,2.025c-0.743,0-1.479-0.378-2.317-1.19c-0.11-0.106-0.272-0.14-0.415-0.089   c-0.145,0.053-0.246,0.183-0.262,0.336c-0.236,2.339,2.249,4.526,5.54,4.875c0.305,0.032,0.605,0.048,0.9,0.048   c2.227,0,4.146-0.903,5.019-2.278c0.873,1.373,2.789,2.274,5.011,2.274c0.3,0,0.604-0.016,0.914-0.049   C21.219,20.477,23.698,18.287,23.455,15.947z M17.841,20.035c-0.28,0.03-0.557,0.044-0.828,0.044c-2.298,0-4.2-1.046-4.626-2.544   c-0.098-0.344-0.672-0.344-0.77,0c-0.475,1.675-2.799,2.786-5.45,2.505c-2.401-0.254-4.315-1.564-4.748-3.107   c0.715,0.522,1.402,0.77,2.118,0.77c1.164,0,2.38-0.644,4.195-2.221c0.684-0.593,1.373-0.906,1.994-0.906   c1.071,0,1.686,0.875,1.887,1.625c0.094,0.35,0.68,0.35,0.773,0c0.2-0.75,0.815-1.625,1.886-1.625c0.62,0,1.31,0.313,1.993,0.904   c1.818,1.573,3.033,2.214,4.195,2.214c0.719,0,1.407-0.249,2.122-0.773C22.154,18.464,20.243,19.777,17.841,20.035z" fill="#FFFFFF"/>
</g>
</svg>
