<?xml version="1.0" encoding="iso-8859-1"?>
<!-- Generator: Adobe Illustrator 16.0.0, SVG Export Plug-In . SVG Version: 6.00 Build 0)  -->
<!DOCTYPE svg PUBLIC "-//W3C//DTD SVG 1.1//EN" "http://www.w3.org/Graphics/SVG/1.1/DTD/svg11.dtd">
<svg xmlns="http://www.w3.org/2000/svg" xmlns:xlink="http://www.w3.org/1999/xlink" version="1.1" id="Capa_1" x="0px" y="0px" width="512px" height="512px" viewBox="0 0 423.395 423.394" style="enable-background:new 0 0 423.395 423.394;" xml:space="preserve">
<g>
	<g>
		<path d="M350.604,379.231c-32.143,0-283.653,0-315.78,0c-19.742,0-26.424-1.622-26.424,10.156    c0,18.478,51.648,27.107,79.916,27.107c21.904,0,186.895,0,208.784,0c28.277,0,79.916-8.63,79.916-27.107    C377.016,377.61,370.332,379.231,350.604,379.231z" fill="#FFFFFF"/>
		<path d="M416.166,45.431c-6.965-6.953-16.98-8.705-25.658-5.636c3.057-8.69,1.312-18.708-5.635-25.66    c-9.664-9.651-25.299-9.646-34.934,0.007c-5.17,5.17-7.352,12.031-6.994,18.792c1.516,22.362-11.035,40.36-20.621,49.931    c-25.873,25.875-105.637,32.479-105.637,32.479l0.016,0.091c-16.131,2.227-31.646,8.979-44.749,20.162    c-5.594,2.208-10.777-7.646,0.57-16.523c5.68-4.448,19.51-9.632,14.354-12.427C83.191,109.361,0,184.23,0,276.406    c0,93.917,43.008,84.701,192.639,84.701c161.885,0,192.684,9.216,192.684-84.701c0-42.126-17.459-80.604-46.234-110.303    c-4.26,17.333-7.102,35.647-8.273,49.063l-0.031,0.424l-0.078,0.401c-3.164,22.671-13.164,42.985-28.959,58.776    c-19.527,19.529-45.492,30.289-73.107,30.289c-24.76,0-46.449-7.3-65.113-23.157c-9.988-9.12,1.914-21.177,13.139-10.465    c3.531,2.639,7.207,4.91,11.021,6.929c0.908,0.512,1.82,1.004,2.76,1.467c3.166,1.547,6.346,2.937,9.633,4.078    c2.055,0.727,4.123,1.265,6.207,1.836c2.516,0.665,4.986,1.421,7.549,1.867c4.725,0.833,9.493,1.329,14.297,1.359    c9.907,0.061,19.739-1.806,29.205-5.108c12.042-4.185,23.448-10.794,33.065-20.427c13.986-13.969,21.904-31.497,24.451-49.651    l0.291,0.038c0,0,6.611-79.783,32.496-105.648c9.693-9.718,28.021-22.537,50.85-20.617c0.125,0.015,0.232,0.023,0.357,0.023    c0.168,0.016,0.307-0.009,0.494,0.007v-0.1c6.094-0.16,12.146-2.455,16.826-7.124C425.795,70.718,425.812,55.086,416.166,45.431z" fill="#FFFFFF"/>
	</g>
</g>
<g>
</g>
<g>
</g>
<g>
</g>
<g>
</g>
<g>
</g>
<g>
</g>
<g>
</g>
<g>
</g>
<g>
</g>
<g>
</g>
<g>
</g>
<g>
</g>
<g>
</g>
<g>
</g>
<g>
</g>
</svg>
