<?xml version="1.0" encoding="iso-8859-1"?>
<!DOCTYPE svg PUBLIC "-//W3C//DTD SVG 1.1//EN" "http://www.w3.org/Graphics/SVG/1.1/DTD/svg11.dtd">
<svg xmlns="http://www.w3.org/2000/svg" xmlns:xlink="http://www.w3.org/1999/xlink" version="1.1" viewBox="0 0 315.295 315.295" enable-background="new 0 0 315.295 315.295" width="512px" height="512px">
  <g>
    <path d="m251.382,68.559l-20-59.018c-2.217-6.539-9.314-10.041-15.851-7.827-6.538,2.216-10.043,9.313-7.827,15.851l14.404,42.287h-127.421l14.404-42.505c2.216-6.538-1.288-13.635-7.827-15.851-6.542-2.214-13.635,1.288-15.851,7.827l-20,59.017c-1.293,3.815-0.668,8.021 1.68,11.295 2.348,3.274 6.13,5.217 10.159,5.217h48.392v64.866l-51.194,13.415c-4.111,1.077-7.572,3.848-9.523,7.622-1.951,3.775-2.21,8.201-0.711,12.178l20.364,54.035c2.265,6.01 7.974,9.715 14.039,9.714 1.757,0 3.545-0.311 5.287-0.968 7.752-2.921 11.668-11.574 8.746-19.326l-14.492-38.455 30.8-8.071h34.023l15.194,44.125-15.717,73.155c-1.74,8.099 3.415,16.075 11.515,17.815 1.062,0.229 2.121,0.338 3.165,0.338 6.918,0 13.139-4.815 14.65-11.853l16.595-77.239c0.574-2.672 0.407-5.45-0.482-8.034l-16.049-46.607v-86.491h47.689c4.029,0 7.811-1.942 10.159-5.217 2.348-3.274 2.973-7.48 1.68-11.295z" fill="#FFFFFF"/>
    <circle cx="158.885" cy="25.907" r="25.907" fill="#FFFFFF"/>
  </g>
</svg>
