<?xml version="1.0" encoding="iso-8859-1"?>
<!-- Generator: Adobe Illustrator 19.0.0, SVG Export Plug-In . SVG Version: 6.00 Build 0)  -->
<svg xmlns="http://www.w3.org/2000/svg" xmlns:xlink="http://www.w3.org/1999/xlink" version="1.1" id="Layer_1" x="0px" y="0px" viewBox="0 0 512 512" style="enable-background:new 0 0 512 512;" xml:space="preserve" width="512px" height="512px">
<g>
	<g>
		<g>
			<path d="M404.191,234.459c-67.583,0-123.502,53.403-148.191,81.424c-24.688-28.02-80.608-81.424-148.189-81.424     C48.364,234.459,0,282.823,0,342.269c0,59.446,48.364,107.809,107.81,107.809c67.583,0,123.501-53.403,148.19-81.422     c24.688,28.02,80.607,81.422,148.191,81.422c59.447,0,107.809-48.363,107.809-107.809S463.637,234.459,404.191,234.459z      M201.902,375.11c-40.395,34.365-73.463,41.578-94.092,41.578c-41.035,0-74.419-33.384-74.419-74.418     s33.385-74.419,74.419-74.419c57.407,0,107.928,52.241,126.805,74.443C227.661,350.493,216.378,362.794,201.902,375.11z      M404.191,416.687c-57.391,0-107.896-52.205-126.786-74.418c18.889-22.213,69.396-74.419,126.786-74.419     c41.035,0,74.418,33.385,74.418,74.419C478.609,383.304,445.225,416.687,404.191,416.687z" fill="#FFFFFF"/>
			<path d="M219.701,200.156c11.221,8.678,26.562,18.651,27.209,19.072l9.09,5.9l9.089-5.9c0.648-0.421,15.99-10.394,27.209-19.072     c25.716-19.891,55.235-46.813,55.235-78.711c0-32.82-26.702-59.523-59.523-59.523c-11.441,0-22.535,3.309-32.011,9.354     c-9.476-6.046-20.57-9.354-32.011-9.354c-32.821,0-59.523,26.702-59.523,59.523C164.465,153.342,193.985,180.265,219.701,200.156     z M223.989,95.314c7.45,0,14.57,3.202,19.535,8.787L256,118.132l12.476-14.032c4.964-5.584,12.083-8.786,19.534-8.786     c14.408,0,26.132,11.723,26.132,26.132c0,13.007-14.222,30.602-42.272,52.297c-4.94,3.821-10.972,8.055-15.871,11.399     c-4.897-3.344-10.93-7.579-15.87-11.399c-28.05-21.697-42.272-39.293-42.272-52.297     C197.857,107.036,209.579,95.314,223.989,95.314z" fill="#FFFFFF"/>
		</g>
	</g>
</g>
<g>
</g>
<g>
</g>
<g>
</g>
<g>
</g>
<g>
</g>
<g>
</g>
<g>
</g>
<g>
</g>
<g>
</g>
<g>
</g>
<g>
</g>
<g>
</g>
<g>
</g>
<g>
</g>
<g>
</g>
</svg>
