<?xml version="1.0" encoding="iso-8859-1"?>
<!-- Generator: Adobe Illustrator 19.0.0, SVG Export Plug-In . SVG Version: 6.00 Build 0)  -->
<svg xmlns="http://www.w3.org/2000/svg" xmlns:xlink="http://www.w3.org/1999/xlink" version="1.1" id="Layer_1" x="0px" y="0px" viewBox="0 0 512.002 512.002" style="enable-background:new 0 0 512.002 512.002;" xml:space="preserve" width="512px" height="512px">
<g>
	<g>
		<path d="M346.65,430.518l-54.804-320.013c5.518-0.625,10.361-4.527,11.896-10.213c1.838-6.811-1.363-14.807-11.052-17.421    c-0.764,3.094,0.097,0.496-17.669,48.315l51.843,302.72c0.936,5.463,6.122,9.135,11.587,8.199    C343.914,441.17,347.585,435.982,346.65,430.518z" fill="#FFFFFF"/>
	</g>
</g>
<g>
	<g>
		<path d="M241.781,170.434l33.201-89.367c4.143-11.152-1.539-23.552-12.691-27.695c-11.152-4.143-23.552,1.538-27.695,12.691    l-26.607,71.616l-67.044-15.5l50.568,1.54c-6.08-13.422-20.844-21.312-35.858-18.151l-56.049,11.798    c-17.358,3.653-28.468,20.687-24.814,38.045L107.32,309.96l-4.408,75.076L49.407,473.97c-7.144,11.875-3.309,27.292,8.566,34.437    c11.877,7.145,27.294,3.308,34.437-8.566l56.69-94.23c2.092-3.478,3.31-7.412,3.549-11.464l5.156-87.806l20.5-4.315l27.644,67.248    l1.208,117.889c0.141,13.643,11.213,24.923,25.348,24.835c13.858-0.142,24.976-11.491,24.835-25.348l-1.258-122.711    c-0.032-3.186-0.672-6.337-1.882-9.283l-27.237-66.259l-18.848-89.549l-76.869-34.692l85.494,19.766    C227.286,186.359,238.008,180.588,241.781,170.434z" fill="#FFFFFF"/>
	</g>
</g>
<g>
	<g>
		<path d="M216.901,62.42c-2.547-8.495-9.295-15.518-18.488-17.998c-12.696-3.426-25.721,2.982-31.002,14.565    c1.676-6.746,1.894-13.965,0.366-21.224c-5.409-25.697-30.624-42.143-56.32-36.734C85.76,6.438,69.314,31.653,74.723,57.349    c5.409,25.698,30.625,42.144,56.32,36.735c16.261-3.423,28.808-14.781,34.467-29.169c-2.667,13.543,5.568,27.03,19.097,30.68    c7.715,2.082,15.55,0.526,21.699-3.609c3.974-10.696,7.016-18.884,10.949-29.471L216.901,62.42z" fill="#FFFFFF"/>
	</g>
</g>
<g>
	<g>
		<path d="M454.374,17.131l-0.004-0.02c-8.346,1.894-64.814,14.71-74.719,16.958l0.028,0.123c-2.908,1.309-4.936,4.228-4.936,7.624    v56.81c-2.614-0.677-5.424-1.049-8.355-1.049c-13.853,0-25.083,8.238-25.083,18.401s11.23,18.401,25.083,18.401    c14.891,0,24.635-9.373,24.903-20.577c0.03-1.256,0.129-11.029,0.181-50.395l57.991-13.162v31.308    c-2.614-0.677-5.424-1.049-8.355-1.049c-13.853,0-25.083,8.238-25.083,18.401c0,10.163,11.23,18.401,25.083,18.401    c14.887,0,24.635-9.37,24.903-20.577c0.031-1.281,0.098-7.13,0.181-71.984C466.19,18.683,459.919,14.612,454.374,17.131z" fill="#FFFFFF"/>
	</g>
</g>
<g>
</g>
<g>
</g>
<g>
</g>
<g>
</g>
<g>
</g>
<g>
</g>
<g>
</g>
<g>
</g>
<g>
</g>
<g>
</g>
<g>
</g>
<g>
</g>
<g>
</g>
<g>
</g>
<g>
</g>
</svg>
