<?xml version="1.0" encoding="iso-8859-1"?>
<!-- Generator: Adobe Illustrator 16.0.0, SVG Export Plug-In . SVG Version: 6.00 Build 0)  -->
<!DOCTYPE svg PUBLIC "-//W3C//DTD SVG 1.1//EN" "http://www.w3.org/Graphics/SVG/1.1/DTD/svg11.dtd">
<svg xmlns="http://www.w3.org/2000/svg" xmlns:xlink="http://www.w3.org/1999/xlink" version="1.1" id="Capa_1" x="0px" y="0px" width="512px" height="512px" viewBox="0 0 79.534 79.535" style="enable-background:new 0 0 79.534 79.535;" xml:space="preserve">
<g>
	<path d="M30.019,17.263c0.127-0.629,0.127-1.303,0.319-1.903h26.087c0.43,1.326,0.715,2.727,0.715,4.194   c0,7.604-6.157,13.756-13.743,13.756c-6.107,0-11.257-4.011-13.049-9.525C31.836,21.786,31.645,19.088,30.019,17.263z    M21.004,77.891h6.682l-0.223-7.421L21.004,77.891z M66.149,47.615c0.994,2.024,2.604,17.662,3.806,30.276h-9.419L58.579,57.67   l-0.627,20.221H28.841L28.214,57.67c0,0-0.137-2.683-0.624-5.095L4.004,52.291c-1.543-0.021-2.952-0.922-3.599-2.32   c-0.697-1.393-0.474-3.065,0.502-4.262l1.417-1.752c0.111-0.288,0.292-0.551,0.481-0.794l20.288-25.029   c1.385-1.748,3.951-2.009,5.673-0.598c1.74,1.398,2.012,3.94,0.601,5.678v0.028L15.66,40.267l14.76-2.058   c0.034-0.005,0.075,0.016,0.106,0.005c2.98-1.098,6.734-1.686,11.55-1.686h1.31h1.336C57.543,36.528,62.768,40.722,66.149,47.615z    M58.04,40.329c-1.543-0.826-3.355-1.494-5.54-1.934l-21.979,39.31h6.618L58.04,40.329z M54.1,1.643H32.66L30.337,13.24h26.087   L54.1,1.643z M70.032,33.214l-0.455-0.451l6.55-6.571l0.481,0.445l2.926-2.962l-1.574-1.572l-2.961,2.959l0.201,0.207l-6.54,6.563   l-1.388-1.373l-2.159-2.159l-1.056,1.046l2.195,2.172l-6.229,6.231l-1.036-0.383l-0.59,0.58c1.786,0.88,3.345,2.024,4.717,3.41   L70.032,33.214z" fill="#FFFFFF"/>
</g>
<g>
</g>
<g>
</g>
<g>
</g>
<g>
</g>
<g>
</g>
<g>
</g>
<g>
</g>
<g>
</g>
<g>
</g>
<g>
</g>
<g>
</g>
<g>
</g>
<g>
</g>
<g>
</g>
<g>
</g>
</svg>
