<?xml version="1.0" encoding="iso-8859-1"?>
<!-- Generator: Adobe Illustrator 19.0.0, SVG Export Plug-In . SVG Version: 6.00 Build 0)  -->
<svg xmlns="http://www.w3.org/2000/svg" xmlns:xlink="http://www.w3.org/1999/xlink" version="1.1" id="Layer_1" x="0px" y="0px" viewBox="0 0 512 512" style="enable-background:new 0 0 512 512;" xml:space="preserve" width="512px" height="512px">
<g>
	<g>
		<path d="M508.993,394.27c-3.321-2.491-8.031-1.817-10.521,1.503l-16.752,22.336L329.269,113.202l28.233-28.233    c2.935-2.935,2.935-7.693,0-10.627c-2.936-2.935-7.693-2.935-10.628,0l-26.749,26.748l-26.748-26.748    c-2.936-2.935-7.693-2.935-10.628,0c-2.935,2.935-2.935,7.693,0,10.627l19.234,19.234h-95.079l15.029-20.039    c2.49-3.32,1.817-8.031-1.503-10.521c-3.32-2.489-8.031-1.817-10.521,1.503l-18.849,25.131l-25.936-25.936    c-2.935-2.935-7.693-2.935-10.627,0c-2.935,2.935-2.935,7.693,0,10.627l28.233,28.233L30.278,418.108l-16.752-22.336    c-2.49-3.32-7.2-3.993-10.521-1.503c-3.319,2.49-3.993,7.201-1.503,10.521l24.047,32.063c1.406,1.867,3.689,3.006,6.024,3.006    h384.405c4.151,0,7.515-3.365,7.515-7.515s-3.364-7.515-7.515-7.515h-59.147L255.305,221.777    c-1.856-3.712-6.368-5.217-10.082-3.361c-3.712,1.856-5.217,6.369-3.361,10.082l98.167,196.331h-140.64V143.551l30.184,60.368    c1.856,3.713,6.368,5.218,10.082,3.361c3.712-1.856,5.217-6.369,3.361-10.082l-38.982-77.965h111.447l152.798,305.596h-20.237    c-4.151,0-7.515,3.365-7.515,7.515s3.364,7.515,7.515,7.515h32.381c2.343,0,4.62-1.129,6.027-3.006l24.047-32.063    C512.987,401.471,512.314,396.76,508.993,394.27z M184.36,424.829h-68.733l68.733-143.715V424.829z M101.506,419.52    l-19.828-19.827l74.352-94.179L101.506,419.52z M184.36,245.375L65.742,395.625c-2.361,2.991-2.11,7.276,0.584,9.97l19.235,19.234    h-41.84L184.36,143.551V245.375z" fill="#FFFFFF"/>
	</g>
</g>
<g>
	<g>
		<path d="M358.908,268.671l-32.063-64.125c-1.272-2.546-3.875-4.154-6.721-4.154h-32.063c-5.481,0-9.179,5.964-6.721,10.875    l32.063,64.125c1.273,2.546,3.875,4.154,6.721,4.154h32.063C357.668,279.546,361.366,273.582,358.908,268.671z M324.77,264.516    l-24.548-49.096h15.259l24.548,49.096H324.77z" fill="#FFFFFF"/>
	</g>
</g>
<g>
</g>
<g>
</g>
<g>
</g>
<g>
</g>
<g>
</g>
<g>
</g>
<g>
</g>
<g>
</g>
<g>
</g>
<g>
</g>
<g>
</g>
<g>
</g>
<g>
</g>
<g>
</g>
<g>
</g>
</svg>
