<?xml version="1.0" encoding="iso-8859-1"?>
<!-- Generator: Adobe Illustrator 18.1.1, SVG Export Plug-In . SVG Version: 6.00 Build 0)  -->
<svg xmlns="http://www.w3.org/2000/svg" xmlns:xlink="http://www.w3.org/1999/xlink" version="1.1" id="Capa_1" x="0px" y="0px" viewBox="0 0 25.944 25.944" style="enable-background:new 0 0 25.944 25.944;" xml:space="preserve" width="512px" height="512px">
<g>
	<circle cx="14.268" cy="2.372" r="2.372" fill="#FFFFFF"/>
	<path d="M10.987,6.489c0.088-0.602,0.555-0.964,0.896-0.869l2.475,0.69c0.34,0.097,0.457,0.887,0.361,1.23   l-2.039,8.372c-0.1,0.344-0.305,0.514-0.646,0.416l-1.672-0.362c-1.347-1.109-1.339-2.074-1.063-3.406L10.987,6.489z" fill="#FFFFFF"/>
	<path d="M8.864,16.109L8.44,19.074c0,0-1.091,2.591-1.841,4.113c-0.567,1.153-0.834,1.984-0.444,2.192   c0.598,0.318,1.402-0.395,2.244-1.708c1.412-2.202,2.139-3.303,2.411-3.838l0.427-1.398C11.237,18.436,9.14,17.048,8.864,16.109z" fill="#FFFFFF"/>
	<path d="M16.358,17.336l-3.303-3.28c-0.521-0.525-1.299-0.278-1.826,0.244   c-0.526,0.518-1.556,1.008-1.037,1.536l4.201,3.537l-0.465,4.532c-0.034,1.118,0.032,1.766,0.742,1.84   c0.663,0.069,0.955-1.31,1.024-1.659c0,0,0.849-4.341,0.952-4.953C16.749,18.52,16.811,17.799,16.358,17.336z" fill="#FFFFFF"/>
	<path d="M20.352,7.611l-2.49,1.171l-3.137-2.29c-0.498-0.361-1.197-0.249-1.559,0.252   c-0.361,0.499-0.249,1.196,0.252,1.559l3.383,2.45c0.318,0.229,0.807,0.349,1.165,0.194c0,0,2.323-1.411,2.946-1.817   c0.653-0.428,1.336-0.99,1.084-1.462C21.638,6.99,20.986,7.305,20.352,7.611z" fill="#FFFFFF"/>
	
		<line style="stroke-width:1.1418;stroke-linecap:round;stroke-linejoin:round;stroke-miterlimit:10;" x1="20.268" y1="6.373" x2="20.268" y2="25.373" stroke="#FFFFFF" fill="#FFFFFF"/>
	<path d="M9.821,6.391c0,0-1.484,4.606-1.709,5.338c-0.225,0.732-1.01,1.24-2.119,0.902   c-1.109-0.339-2.26-0.804-2.08-2.1C4.11,9.119,5.444,7.244,6.601,6.038C7.758,4.833,10.4,4.414,9.821,6.391z" fill="#FFFFFF"/>
</g>
<g>
</g>
<g>
</g>
<g>
</g>
<g>
</g>
<g>
</g>
<g>
</g>
<g>
</g>
<g>
</g>
<g>
</g>
<g>
</g>
<g>
</g>
<g>
</g>
<g>
</g>
<g>
</g>
<g>
</g>
</svg>
